<?xml version="1.0" standalone="no"?>
<!DOCTYPE svg PUBLIC "-//W3C//DTD SVG 20010904//EN"
 "http://www.w3.org/TR/2001/REC-SVG-20010904/DTD/svg10.dtd">
<svg version="1.0" xmlns="http://www.w3.org/2000/svg"
 width="700.000000pt" height="700.000000pt" viewBox="0 0 700.000000 700.000000"
 preserveAspectRatio="xMidYMid meet">
<metadata>
Created by potrace 1.14, written by Peter Selinger 2001-2017
</metadata>
<g transform="translate(0.000000,700.000000) scale(0.100000,-0.100000)"
fill="#000000" stroke="none">
<path d="M3438 6925 c-2 -2 -57 -6 -123 -10 -126 -7 -145 -8 -235 -19 -106
-13 -169 -24 -280 -47 -663 -139 -1265 -470 -1742 -955 -76 -78 -239 -265
-286 -329 -136 -184 -206 -295 -296 -467 -234 -445 -356 -879 -391 -1388 -9
-131 -3 -455 9 -545 3 -16 8 -57 11 -90 26 -238 100 -535 199 -800 104 -275
299 -623 479 -855 176 -226 413 -464 617 -620 25 -19 47 -37 50 -40 7 -7 55
-40 157 -108 502 -336 1092 -534 1688 -567 225 -13 547 1 715 31 14 2 41 7 60
10 439 68 918 257 1310 517 99 65 281 200 320 236 10 9 66 61 126 116 90 82
190 185 284 293 156 177 325 435 454 690 103 203 216 511 261 712 52 227 80
419 90 605 5 88 5 331 0 410 -6 102 -16 210 -20 225 -2 8 -7 36 -10 62 -4 37
-34 200 -50 278 -32 148 -118 413 -188 575 -48 113 -170 349 -218 425 -9 14
-38 59 -65 100 -347 542 -889 1001 -1499 1268 -170 74 -447 166 -595 198 -264
55 -388 71 -635 79 -88 3 -168 8 -177 9 -9 2 -18 3 -20 1z"/>
</g>
</svg>
