<?xml version="1.0" encoding="UTF-8" standalone="no" ?>
<!DOCTYPE svg PUBLIC "-//W3C//DTD SVG 1.1//EN" "http://www.w3.org/Graphics/SVG/1.1/DTD/svg11.dtd">
<svg xmlns="http://www.w3.org/2000/svg" xmlns:xlink="http://www.w3.org/1999/xlink" version="1.1" width="50" height="50" viewBox="0 0 50 50" xml:space="preserve">
<desc>Created with Fabric.js 4.6.0</desc>
<defs>
</defs>
<g transform="matrix(1 0 0 1 25 25)" id="ZXE-0FuYR4UvDqRDOjT9i"  >
<path style="stroke: rgb(152,229,50); stroke-width: 0; stroke-dasharray: none; stroke-linecap: butt; stroke-dashoffset: 0; stroke-linejoin: miter; stroke-miterlimit: 4; fill: rgb(22,78,99); fill-rule: nonzero; opacity: 1;" vector-effect="non-scaling-stroke"  transform=" translate(-24.44, -24.44)" d="M 24.44074 0 C 37.93203 0 48.88148 10.94945 48.88148 24.44074 C 48.88148 37.93203 37.932030000000005 48.88148 24.44074 48.88148 C 10.949450000000002 48.88148 0 37.932030000000005 0 24.44074 C 0 10.949450000000002 10.94945 0 24.44074 0 z" stroke-linecap="round" />
</g>
<g transform="matrix(1.45 0 0 1.45 25 25)" id="ix8RGFethbwNDfa1OiDGZ"  >
<path style="stroke: rgb(53,78,248); stroke-width: 0; stroke-dasharray: none; stroke-linecap: butt; stroke-dashoffset: 0; stroke-linejoin: miter; stroke-miterlimit: 4; fill: rgb(87,83,78); fill-rule: nonzero; opacity: 1;" vector-effect="non-scaling-stroke"  transform=" translate(0, 0)" d="M 0 -11.79605 C 6.51142 -11.79605 11.79605 -6.511419999999999 11.79605 0 C 11.79605 6.51142 6.511419999999999 11.79605 0 11.79605 C -6.51142 11.79605 -11.79605 6.511419999999999 -11.79605 0 C -11.79605 -6.51142 -6.511419999999999 -11.79605 0 -11.79605 z" stroke-linecap="round" />
</g>
<g transform="matrix(0.74 0 0 0.74 25 25)" id="WVMr8Tfg_JpaeGU1bX8p9"  >
<path style="stroke: rgb(53,78,248); stroke-width: 0; stroke-dasharray: none; stroke-linecap: butt; stroke-dashoffset: 0; stroke-linejoin: miter; stroke-miterlimit: 4; fill: rgb(180,83,9); fill-rule: nonzero; opacity: 1;" vector-effect="non-scaling-stroke"  transform=" translate(0, 0)" d="M 0 -11.79605 C 6.51142 -11.79605 11.79605 -6.511419999999999 11.79605 0 C 11.79605 6.51142 6.511419999999999 11.79605 0 11.79605 C -6.51142 11.79605 -11.79605 6.511419999999999 -11.79605 0 C -11.79605 -6.51142 -6.511419999999999 -11.79605 0 -11.79605 z" stroke-linecap="round" />
</g>
</svg>